<svg width="16" height="16" viewBox="0 0 16 16" fill="none" xmlns="http://www.w3.org/2000/svg">
<path d="M2 3.5C2 2.67157 2.67157 2 3.5 2H12.5C13.3284 2 14 2.67157 14 3.5V12.5C14 13.3284 13.3284 14 12.5 14H3.5C2.67157 14 2 13.3284 2 12.5V3.5Z" fill="url(#paint0_linear_1943_449)"/>
<path d="M13 8C13 10.7614 10.7614 13 8 13C5.23858 13 3 10.7614 3 8C3 5.23858 5.23858 3 8 3C10.7614 3 13 5.23858 13 8Z" fill="url(#paint1_linear_1943_449)"/>
<path d="M4 8C4 6.89543 4.89543 6 6 6H10C11.1046 6 12 6.89543 12 8C12 9.10457 11.1046 10 10 10H6C4.89543 10 4 9.10457 4 8Z" fill="#008490"/>
<path d="M11 8C11 8.55228 10.5523 9 10 9C9.44772 9 9 8.55228 9 8C9 7.44772 9.44772 7 10 7C10.5523 7 11 7.44772 11 8Z" fill="white"/>
<defs>
<linearGradient id="paint0_linear_1943_449" x1="2" y1="14" x2="14" y2="2" gradientUnits="userSpaceOnUse">
<stop stop-color="#229FAD"/>
<stop offset="1" stop-color="#49BAC8"/>
</linearGradient>
<linearGradient id="paint1_linear_1943_449" x1="3" y1="13" x2="13" y2="3" gradientUnits="userSpaceOnUse">
<stop stop-color="#CDF8FF"/>
<stop offset="1" stop-color="#F5FEFF"/>
</linearGradient>
</defs>
</svg>
