<svg width="240" height="192" viewBox="0 0 240 192" fill="none" xmlns="http://www.w3.org/2000/svg">
    <path d="M100.174 77.2174C109.394 77.2174 116.869 69.7425 116.869 60.5217C116.869 51.301 109.394 43.8261 100.174 43.8261C90.9529 43.8261 83.478 51.301 83.478 60.5217C83.478 69.7425 90.9529 77.2174 100.174 77.2174Z" fill="#00525A"/>
    <path d="M121.043 70.9565C130.264 70.9565 137.739 63.4816 137.739 54.2609C137.739 45.0401 130.264 37.5652 121.043 37.5652C111.823 37.5652 104.348 45.0401 104.348 54.2609C104.348 63.4816 111.823 70.9565 121.043 70.9565Z" fill="#00525A"/>
    <path d="M141.913 77.2174C151.134 77.2174 158.609 69.7425 158.609 60.5217C158.609 51.301 151.134 43.8261 141.913 43.8261C132.692 43.8261 125.217 51.301 125.217 60.5217C125.217 69.7425 132.692 77.2174 141.913 77.2174Z" fill="#00525A"/>
    <path d="M162.783 98.087C172.003 98.087 179.478 90.6121 179.478 81.3913C179.478 72.1705 172.003 64.6956 162.783 64.6956C153.562 64.6956 146.087 72.1705 146.087 81.3913C146.087 90.6121 153.562 98.087 162.783 98.087Z" fill="#00525A"/>
    <path d="M87.8131 171.304C90.9397 174.091 93.058 178.181 94.1132 183.462C94.861 187.202 97.9944 189.916 102.168 189.916L154.506 189.774C156.593 189.772 158.608 189.004 160.17 187.614C161.731 186.224 162.733 184.307 162.985 182.227C163.553 177.482 164.808 170.634 167.583 164.955C169.827 160.385 170.986 155.356 170.97 150.261V84.0487C170.97 79.5241 167.294 75.3632 163.104 75.1512C161.977 75.089 160.849 75.2582 159.789 75.6485C158.729 76.0388 157.76 76.6421 156.94 77.4214C156.12 78.2007 155.466 79.1397 155.02 80.1811C154.573 81.2225 154.343 82.3444 154.342 83.4783C154.342 83.4783 154.342 111.628 154.342 112.696C154.342 113.764 153.592 114.783 152.255 114.783C150.918 114.783 150.167 113.309 150.168 112.696V62.6087C150.168 58.084 146.419 54.4832 142.232 54.2712C141.103 54.1985 139.97 54.3638 138.908 54.7563C137.845 55.1488 136.876 55.7599 136.063 56.5505C135.24 57.3279 134.586 58.267 134.141 59.3092C133.695 60.3514 133.468 61.4745 133.473 62.6087C133.473 62.6087 133.473 89.6867 133.473 106.435C133.473 107.805 132.538 108.522 131.386 108.522C130.233 108.522 129.299 107.941 129.299 106.435C129.299 87.2381 129.299 56.3476 129.299 56.3476C129.299 52.1739 125.555 48.2247 121.365 48.0101C120.238 47.9489 119.109 48.1193 118.049 48.5106C116.989 48.902 116.019 49.5062 115.199 50.2864C114.379 51.0666 113.726 52.0064 113.28 53.0485C112.833 54.0906 112.603 55.2132 112.603 56.3476V61.9713V102.261C112.603 102.973 112.011 104.348 110.516 104.348C109.022 104.348 108.429 103.019 108.429 102.261C108.429 86.2423 108.429 61.565 108.429 61.565C108.429 57.2104 104.925 53.7588 100.931 53.2747C100.649 53.2459 100.371 53.2198 100.095 53.2172C99.8057 53.2144 99.5169 53.2275 99.2295 53.2564C98.9328 53.2826 98.6379 53.3263 98.3463 53.3873C98.0683 53.4434 97.7935 53.5142 97.5229 53.5992C97.2372 53.693 96.9571 53.803 96.684 53.9289C96.4234 54.0389 96.1889 54.154 95.9492 54.2901C95.6663 54.4583 95.3931 54.6427 95.1311 54.8423C94.9253 54.994 94.7168 55.1432 94.524 55.3159C94.2709 55.5504 94.0325 55.8004 93.8101 56.0644C93.6512 56.2475 93.4818 56.4203 93.3411 56.6113C93.1168 56.9295 92.9157 57.2636 92.7393 57.611C92.6507 57.7758 92.5438 57.9302 92.4787 58.0977C92.3004 58.5128 92.1558 58.9416 92.0462 59.38C92.0123 59.5082 91.955 59.6286 91.9264 59.7621C91.7991 60.344 91.7344 60.9379 91.7335 61.5337C91.7335 61.5337 91.7335 125.023 91.7335 133.565C91.7335 135.458 89.8849 136.81 87.1592 134.039C84.4334 131.268 75.174 123.498 67.3992 123.425H67.3549C66.5457 123.42 65.7489 123.625 65.0411 124.019C64.3334 124.413 63.7385 124.984 63.3138 125.675C62.887 126.352 62.6451 127.13 62.6127 127.93C62.5802 128.73 62.7582 129.525 63.1288 130.234L76.5601 156.665C79.3672 162.208 83.1842 167.174 87.8131 171.304Z" fill="#484848"/>
    <path d="M223.304 58.4348L202.435 70.9565V60.5217C202.435 60.5217 194.803 60.5217 189.913 60.5217C188.87 60.5217 187.826 59.9398 187.826 58.4348C187.826 56.9297 188.87 56.3478 189.913 56.3478C194.803 56.3478 202.435 56.3478 202.435 56.3478V45.913L223.304 58.4348Z" fill="#00525A"/>
    </svg>
    