<svg width="190" height="115" viewBox="0 0 190 115" fill="none" xmlns="http://www.w3.org/2000/svg">
    <path d="M0 3.96118C0 1.77348 1.78037 0 3.97657 0H186.023C188.22 0 190 1.77348 190 3.96118V95.0388C190 97.2265 188.22 99 186.023 99H3.97656C1.78036 99 0 97.2265 0 95.0388V3.96118Z" fill="#424242"/>
    <path fill-rule="evenodd" clip-rule="evenodd" d="M3.9975 -0.0012207C1.78974 -0.0012207 0 1.79017 0 3.99997V94.9988C0 97.2086 1.78973 99 3.99749 99L186.003 99C188.21 99 190 97.2086 190 94.9988V4C190 1.7902 188.21 -0.001194 186.003 -0.001194L3.9975 -0.0012207ZM3.99984 2.99878C3.5 2.99878 3 3.49878 3 3.9989V95C3 95.5 3.5 96 4.00012 96L186 96C186.5 96 187 95.4999 187 94.9999V3.99874C187 3.49874 186.5 2.99874 186 2.99881L3.99984 2.99878Z" fill="#AEAEAE"/>
    <path opacity="0.3" d="M40 115C40 111.686 42.6625 109 45.9469 109H146.053C149.337 109 152 111.686 152 115H40Z" fill="#C9C9C9"/>
    <path opacity="0.3" d="M79 100H113V108H79V100Z" fill="#C9C9C9"/>
    <path opacity="0.8" d="M7 9C7 7.89543 7.89543 7 9 7H37C38.1046 7 39 7.89543 39 9V20C39 21.1046 38.1046 22 37 22H9C7.89543 22 7 21.1046 7 20V9Z" fill="#00525A"/>
    <path opacity="0.8" d="M43 9C43 7.89543 43.8954 7 45 7H73C74.1046 7 75 7.89543 75 9V20C75 21.1046 74.1046 22 73 22H45C43.8954 22 43 21.1046 43 20V9Z" fill="#00525A"/>
    <path opacity="0.8" d="M79 9C79 7.89543 79.8954 7 81 7H109C110.105 7 111 7.89543 111 9V20C111 21.1046 110.105 22 109 22H81C79.8954 22 79 21.1046 79 20V9Z" fill="#00525A"/>
    <path opacity="0.8" d="M115 9C115 7.89543 115.895 7 117 7H145C146.105 7 147 7.89543 147 9V20C147 21.1046 146.105 22 145 22H117C115.895 22 115 21.1046 115 20V9Z" fill="#00525A"/>
    <path opacity="0.8" d="M151 9C151 7.89543 151.895 7 153 7H181C182.105 7 183 7.89543 183 9V20C183 21.1046 182.105 22 181 22H153C151.895 22 151 21.1046 151 20V9Z" fill="#00525A"/>
    </svg>
    