<svg width="190" height="115" viewBox="0 0 190 115" fill="none" xmlns="http://www.w3.org/2000/svg">
    <path d="M0 3.96118C0 1.77348 1.78037 0 3.97657 0H186.023C188.22 0 190 1.77348 190 3.96118V95.0388C190 97.2265 188.22 99 186.023 99H3.97656C1.78036 99 0 97.2265 0 95.0388V3.96118Z" fill="#424242"/>
    <path fill-rule="evenodd" clip-rule="evenodd" d="M3.9975 -0.0012207C1.78974 -0.0012207 0 1.79017 0 3.99997V94.9988C0 97.2086 1.78973 99 3.99749 99L186.003 99C188.21 99 190 97.2086 190 94.9988V4C190 1.7902 188.21 -0.001194 186.003 -0.001194L3.9975 -0.0012207ZM3.99984 2.99878C3.5 2.99878 3 3.49878 3 3.9989V95C3 95.5 3.5 96 4.00012 96L186 96C186.5 96 187 95.4999 187 94.9999V3.99874C187 3.49874 186.5 2.99874 186 2.99881L3.99984 2.99878Z" fill="#AEAEAE"/>
    <path opacity="0.3" d="M40 115C40 111.686 42.6625 109 45.9469 109H146.053C149.337 109 152 111.686 152 115H40Z" fill="#C9C9C9"/>
    <path opacity="0.3" d="M79 100H113V108H79V100Z" fill="#C9C9C9"/>
    <path opacity="0.8" d="M7 8C7 6.89543 7.89543 6 9 6H37C38.1046 6 39 6.89543 39 8V19C39 20.1046 38.1046 21 37 21H9C7.89543 21 7 20.1046 7 19V8Z" fill="#00525A"/>
    <path opacity="0.8" d="M7 26C7 24.8954 7.89543 24 9 24H37C38.1046 24 39 24.8954 39 26V37C39 38.1046 38.1046 39 37 39H9C7.89543 39 7 38.1046 7 37V26Z" fill="#00525A"/>
    <path opacity="0.8" d="M7 44C7 42.8954 7.89543 42 9 42H37C38.1046 42 39 42.8954 39 44V55C39 56.1046 38.1046 57 37 57H9C7.89543 57 7 56.1046 7 55V44Z" fill="#00525A"/>
    <path opacity="0.8" d="M7 62C7 60.8954 7.89543 60 9 60H37C38.1046 60 39 60.8954 39 62V73C39 74.1046 38.1046 75 37 75H9C7.89543 75 7 74.1046 7 73V62Z" fill="#00525A"/>
    <path opacity="0.8" d="M7 80C7 78.8954 7.89543 78 9 78H37C38.1046 78 39 78.8954 39 80V91C39 92.1046 38.1046 93 37 93H9C7.89543 93 7 92.1046 7 91V80Z" fill="#00525A"/>
    </svg>
    