<svg width="191" height="100" fill="none" version="1.1" viewBox="0 0 191 100" xmlns="http://www.w3.org/2000/svg">
 <g fill="#fff">
  <path d="m16 20c0-4.4183 3.5817-8 8-8h143c4.418 0 8 3.5817 8 8v4c0 4.4183-3.582 8-8 8h-143c-4.4183 0-8-3.5817-8-8v-4z" opacity=".6"/>
  <path d="m36.745 23.714-1.0665 1.0665 2.2575 2.2575c0.7192 0.7027 1.7737-0.375 1.0545-1.0785l-2.2455-2.2455z"/>
  <path d="m32.838 16.75c-1.094 0-2.1432 0.4346-2.9168 1.2082s-1.2082 1.8228-1.2082 2.9168 0.4346 2.1432 1.2082 2.9168 1.8228 1.2082 2.9168 1.2082 2.1432-0.4346 2.9168-1.2082 1.2082-1.8228 1.2082-2.9168-0.4346-2.1432-1.2082-2.9168-1.8228-1.2082-2.9168-1.2082zm0 1.5c0.6962 0 1.3639 0.2766 1.8561 0.7688 0.4923 0.4923 0.7689 1.16 0.7689 1.8562s-0.2766 1.3639-0.7689 1.8562c-0.4922 0.4922-1.1599 0.7688-1.8561 0.7688s-1.3639-0.2766-1.8562-0.7688c-0.4922-0.4923-0.7688-1.16-0.7688-1.8562s0.2766-1.3639 0.7688-1.8562c0.4923-0.4922 1.16-0.7688 1.8562-0.7688z"/>
  <path d="m16 44c0-2.2091 1.7909-4 4-4h95c2.209 0 4 1.7909 4 4s-1.791 4-4 4h-95c-2.2091 0-4-1.7909-4-4z" opacity=".5"/>
  <path d="m16 56c0-2.2091 1.7909-4 4-4h151c2.209 0 4 1.7909 4 4s-1.791 4-4 4h-151c-2.2091 0-4-1.7909-4-4z" opacity=".5"/>
  <path d="m71 76c0-4.4183 3.5817-8 8-8h32c4.418 0 8 3.5817 8 8v4c0 4.4183-3.582 8-8 8h-32c-4.4183 0-8-3.5817-8-8v-4z" opacity=".6"/>
  <path d="m127 76c0-4.4183 3.582-8 8-8h32c4.418 0 8 3.5817 8 8v4c0 4.4183-3.582 8-8 8h-32c-4.418 0-8-3.5817-8-8v-4z" opacity=".8"/>
 </g>
</svg>
