<svg width="240" height="126" viewBox="0 0 240 126" fill="none" xmlns="http://www.w3.org/2000/svg">
<g clip-path="url(#clip0_174_7927)">
<path d="M0 0H240V126H0V0Z" fill="#666666"/>
<path d="M0 0H240V32H0V0Z" fill="#1B1B1B"/>
<path d="M104 16C104 7.16344 111.163 0 120 0V0C128.837 0 136 7.16344 136 16V16C136 24.8366 128.837 32 120 32V32C111.163 32 104 24.8366 104 16V16Z" fill="#2A2A2A"/>
<g clip-path="url(#clip1_174_7927)">
<path d="M120 8C117.878 8 115.843 8.84285 114.343 10.3431C112.843 11.8434 112 13.8783 112 16C112 18.1217 112.843 20.1566 114.343 21.6569C115.843 23.1571 117.878 24 120 24C122.122 24 124.157 23.1571 125.657 21.6569C127.157 20.1566 128 18.1217 128 16C128 13.8783 127.157 11.8434 125.657 10.3431C124.157 8.84285 122.122 8 120 8ZM119.969 9C120.232 9 120.492 9.05173 120.734 9.15224C120.977 9.25275 121.197 9.40007 121.383 9.58579C121.569 9.7715 121.716 9.99198 121.817 10.2346C121.917 10.4773 121.969 10.7374 121.969 11C121.969 11.5304 121.758 12.0391 121.383 12.4142C121.008 12.7893 120.499 13 119.969 13C119.439 13 118.93 12.7893 118.555 12.4142C118.18 12.0391 117.969 11.5304 117.969 11C117.969 10.4696 118.18 9.96086 118.555 9.58579C118.93 9.21071 119.439 9 119.969 9ZM114.469 14H125.469V16H122.469V22H120.469V18H119.469V22H117.469V16H114.469V14Z" fill="#C4C4C4"/>
</g>
<rect x="16" y="34" width="208" height="66" rx="8" fill="#1B1B1B"/>
<path d="M168 67C168 60.3726 173.373 55 180 55H204C210.627 55 216 60.3726 216 67V67C216 73.6274 210.627 79 204 79H180C173.373 79 168 73.6274 168 67V67Z" fill="#636363"/>
<path d="M34.0239 72H32.7359L32.3999 67.646C32.2599 65.938 32.1806 64.6267 32.1619 63.712L30.0759 70.908H28.8299L26.6319 63.698C26.6319 64.8647 26.5713 66.2134 26.4499 67.744L26.1279 72H24.8679L25.6659 62.354H27.4579L29.4879 69.368L31.4199 62.354H33.2259L34.0239 72Z" fill="#C4C4C4"/>
<path d="M41.1964 70.278C41.1964 70.5767 41.2477 70.8007 41.3504 70.95C41.4531 71.09 41.6071 71.1974 41.8124 71.272L41.5184 72.168C41.1357 72.1214 40.8277 72.014 40.5944 71.846C40.3611 71.678 40.1884 71.4167 40.0764 71.062C39.5817 71.7994 38.8491 72.168 37.8784 72.168C37.1504 72.168 36.5764 71.9627 36.1564 71.552C35.7364 71.1414 35.5264 70.6047 35.5264 69.942C35.5264 69.158 35.8064 68.556 36.3664 68.136C36.9357 67.716 37.7384 67.506 38.7744 67.506H39.9084V66.96C39.9084 66.4374 39.7824 66.064 39.5304 65.84C39.2784 65.616 38.8911 65.504 38.3684 65.504C37.8271 65.504 37.1644 65.6347 36.3804 65.896L36.0584 64.958C36.9731 64.622 37.8224 64.454 38.6064 64.454C39.4744 64.454 40.1231 64.6687 40.5524 65.098C40.9817 65.518 41.1964 66.12 41.1964 66.904V70.278ZM38.1724 71.202C38.9097 71.202 39.4884 70.8194 39.9084 70.054V68.36H38.9424C37.5797 68.36 36.8984 68.864 36.8984 69.872C36.8984 70.3107 37.0057 70.642 37.2204 70.866C37.4351 71.09 37.7524 71.202 38.1724 71.202Z" fill="#C4C4C4"/>
<path d="M49.6549 64.958C49.3749 65.0514 49.0669 65.112 48.7309 65.14C48.3949 65.168 47.9843 65.182 47.4989 65.182C48.3669 65.574 48.8009 66.1947 48.8009 67.044C48.8009 67.7814 48.5489 68.3834 48.0449 68.85C47.5409 69.3167 46.8549 69.55 45.9869 69.55C45.6509 69.55 45.3383 69.5034 45.0489 69.41C44.9369 69.4847 44.8483 69.5874 44.7829 69.718C44.7176 69.8394 44.6849 69.9654 44.6849 70.096C44.6849 70.4974 45.0069 70.698 45.6509 70.698H46.8269C47.3216 70.698 47.7603 70.7867 48.1429 70.964C48.5256 71.1414 48.8196 71.384 49.0249 71.692C49.2396 72 49.3469 72.35 49.3469 72.742C49.3469 73.4607 49.0529 74.0114 48.4649 74.394C47.8769 74.786 47.0183 74.982 45.8889 74.982C45.0956 74.982 44.4656 74.898 43.9989 74.73C43.5416 74.5714 43.2149 74.3287 43.0189 74.002C42.8229 73.6754 42.7249 73.2554 42.7249 72.742H43.8869C43.8869 73.0407 43.9429 73.274 44.0549 73.442C44.1669 73.6194 44.3676 73.75 44.6569 73.834C44.9463 73.9274 45.3569 73.974 45.8889 73.974C46.6636 73.974 47.2143 73.876 47.5409 73.68C47.8769 73.4934 48.0449 73.2087 48.0449 72.826C48.0449 72.4807 47.9143 72.2194 47.6529 72.042C47.3916 71.8647 47.0276 71.776 46.5609 71.776H45.3989C44.7736 71.776 44.2976 71.6454 43.9709 71.384C43.6536 71.1134 43.4949 70.7774 43.4949 70.376C43.4949 70.1334 43.5649 69.9 43.7049 69.676C43.8449 69.452 44.0456 69.2514 44.3069 69.074C43.8776 68.85 43.5603 68.5747 43.3549 68.248C43.1589 67.912 43.0609 67.506 43.0609 67.03C43.0609 66.5354 43.1823 66.092 43.4249 65.7C43.6769 65.308 44.0176 65.0047 44.4469 64.79C44.8856 64.566 45.3709 64.454 45.9029 64.454C46.4816 64.4634 46.9669 64.4447 47.3589 64.398C47.7509 64.342 48.0729 64.272 48.3249 64.188C48.5863 64.0947 48.9036 63.964 49.2769 63.796L49.6549 64.958ZM45.9029 65.378C45.4176 65.378 45.0396 65.532 44.7689 65.84C44.5076 66.1387 44.3769 66.5354 44.3769 67.03C44.3769 67.534 44.5123 67.94 44.7829 68.248C45.0536 68.5467 45.4363 68.696 45.9309 68.696C46.4349 68.696 46.8176 68.5514 47.0789 68.262C47.3496 67.9634 47.4849 67.548 47.4849 67.016C47.4849 65.924 46.9576 65.378 45.9029 65.378Z" fill="#C4C4C4"/>
<path d="M54.4504 64.454C55.1224 64.454 55.645 64.6547 56.0184 65.056C56.401 65.4574 56.5924 66.008 56.5924 66.708V72H55.3044V66.89C55.3044 66.3674 55.2064 65.9987 55.0104 65.784C54.8144 65.5694 54.525 65.462 54.1424 65.462C53.7504 65.462 53.405 65.574 53.1064 65.798C52.8077 66.022 52.5277 66.344 52.2664 66.764V72H50.9784V64.622H52.0844L52.1964 65.714C52.4577 65.322 52.7797 65.014 53.1624 64.79C53.5544 64.566 53.9837 64.454 54.4504 64.454Z" fill="#C4C4C4"/>
<path d="M60.4695 64.622V72H59.1815V64.622H60.4695ZM59.8115 61.08C60.0821 61.08 60.3015 61.164 60.4695 61.332C60.6375 61.5 60.7215 61.71 60.7215 61.962C60.7215 62.214 60.6375 62.424 60.4695 62.592C60.3015 62.7507 60.0821 62.83 59.8115 62.83C59.5501 62.83 59.3355 62.7507 59.1675 62.592C58.9995 62.424 58.9155 62.214 58.9155 61.962C58.9155 61.71 58.9995 61.5 59.1675 61.332C59.3355 61.164 59.5501 61.08 59.8115 61.08Z" fill="#C4C4C4"/>
<path d="M65.6667 61.5C66.0587 61.5 66.4133 61.542 66.7307 61.626C67.0573 61.71 67.384 61.836 67.7107 62.004L67.2627 62.9C66.7773 62.6667 66.2593 62.55 65.7087 62.55C65.214 62.55 64.8733 62.6387 64.6867 62.816C64.5 62.9934 64.4067 63.2687 64.4067 63.642V64.622H68.5227V72H67.2347V65.616H64.4067V72H63.1187V65.616H61.9427V64.622H63.1187V63.656C63.1187 63.0027 63.3287 62.48 63.7487 62.088C64.1687 61.696 64.808 61.5 65.6667 61.5Z" fill="#C4C4C4"/>
<path d="M76.7574 68.094C76.7574 68.3087 76.7481 68.528 76.7294 68.752H72.0254C72.0814 69.564 72.2867 70.1614 72.6414 70.544C72.9961 70.9267 73.4534 71.118 74.0134 71.118C74.3681 71.118 74.6947 71.0667 74.9934 70.964C75.2921 70.8614 75.6047 70.698 75.9314 70.474L76.4914 71.244C75.7074 71.86 74.8487 72.168 73.9154 72.168C72.8887 72.168 72.0861 71.832 71.5074 71.16C70.9381 70.488 70.6534 69.564 70.6534 68.388C70.6534 67.6227 70.7747 66.946 71.0174 66.358C71.2694 65.7607 71.6241 65.294 72.0814 64.958C72.5481 64.622 73.0941 64.454 73.7194 64.454C74.6994 64.454 75.4507 64.776 75.9734 65.42C76.4961 66.064 76.7574 66.9554 76.7574 68.094ZM75.4834 67.716C75.4834 66.988 75.3387 66.4327 75.0494 66.05C74.7601 65.6674 74.3261 65.476 73.7474 65.476C72.6927 65.476 72.1187 66.2507 72.0254 67.8H75.4834V67.716Z" fill="#C4C4C4"/>
<path d="M82.0203 64.454C82.2816 64.454 82.5243 64.482 82.7483 64.538L82.5103 65.798C82.2863 65.742 82.0716 65.714 81.8663 65.714C81.409 65.714 81.0403 65.882 80.7603 66.218C80.4803 66.554 80.261 67.0767 80.1023 67.786V72H78.8143V64.622H79.9203L80.0463 66.12C80.2423 65.5694 80.5083 65.154 80.8443 64.874C81.1803 64.594 81.5723 64.454 82.0203 64.454Z" fill="#C4C4C4"/>
<path d="M190 67C190 72.5228 185.523 77 180 77C174.477 77 170 72.5228 170 67C170 61.4772 174.477 57 180 57C185.523 57 190 61.4772 190 67Z" fill="#030303"/>
</g>
<defs>
<clipPath id="clip0_174_7927">
<rect width="240" height="126" rx="8" fill="white"/>
</clipPath>
<clipPath id="clip1_174_7927">
<rect width="16" height="16" fill="white" transform="translate(112 8)"/>
</clipPath>
</defs>
</svg>
