<svg width="191" height="100" fill="none" version="1.1" viewBox="0 0 191 100" xmlns="http://www.w3.org/2000/svg">
 <g fill="#fff">
  <path d="m16 14c0-1.1046 0.8954-2 2-2h155c1.105 0 2 0.8954 2 2v16c0 1.1046-0.895 2-2 2h-155c-1.1046 0-2-0.8954-2-2v-16z" opacity=".6"/>
  <path d="m36.745 23.714-1.0665 1.0665 2.2575 2.2575c0.7192 0.7027 1.7737-0.375 1.0545-1.0785l-2.2455-2.2455z"/>
  <path d="m32.838 16.75c-1.094 0-2.1432 0.4346-2.9168 1.2082s-1.2082 1.8228-1.2082 2.9168 0.4346 2.1432 1.2082 2.9168 1.8228 1.2082 2.9168 1.2082 2.1432-0.4346 2.9168-1.2082 1.2082-1.8228 1.2082-2.9168-0.4346-2.1432-1.2082-2.9168-1.8228-1.2082-2.9168-1.2082zm0 1.5c0.6962 0 1.3639 0.2766 1.8561 0.7688 0.4923 0.4923 0.7689 1.16 0.7689 1.8562s-0.2766 1.3639-0.7689 1.8562c-0.4922 0.4922-1.1599 0.7688-1.8561 0.7688s-1.3639-0.2766-1.8562-0.7688c-0.4922-0.4923-0.7688-1.16-0.7688-1.8562s0.2766-1.3639 0.7688-1.8562c0.4923-0.4922 1.16-0.7688 1.8562-0.7688z"/>
  <path d="m16 42c0-1.1046 0.8954-2 2-2h99c1.105 0 2 0.8954 2 2v4c0 1.1046-0.895 2-2 2h-99c-1.1046 0-2-0.8954-2-2v-4z" opacity=".5"/>
  <path d="m16 54c0-1.1046 0.8954-2 2-2h155c1.105 0 2 0.8954 2 2v4c0 1.1046-0.895 2-2 2h-155c-1.1046 0-2-0.8954-2-2v-4z" opacity=".5"/>
  <path d="m71 70c0-1.1046 0.8954-2 2-2h44c1.105 0 2 0.8954 2 2v16c0 1.1046-0.895 2-2 2h-44c-1.1046 0-2-0.8954-2-2v-16z" opacity=".6"/>
  <path d="m127 70c0-1.1046 0.895-2 2-2h44c1.105 0 2 0.8954 2 2v16c0 1.1046-0.895 2-2 2h-44c-1.105 0-2-0.8954-2-2v-16z" opacity=".8"/>
 </g>
</svg>
