<svg width="191" height="100" viewBox="0 0 191 100" fill="none" xmlns="http://www.w3.org/2000/svg">
<g clip-path="url(#clip0_9136_9584)">
<path d="M0 0H191V100H0V0Z" fill="#808080"/>
<path d="M0 90H192V100H0V90Z" fill="#D7D7D7"/>
<path opacity="0.6" d="M80 95C80 97.2091 78.2091 99 76 99C73.7909 99 72 97.2091 72 95C72 92.7909 73.7909 91 76 91C78.2091 91 80 92.7909 80 95Z" fill="#161616"/>
<path opacity="0.6" d="M93 95C93 97.2091 91.2091 99 89 99C86.7909 99 85 97.2091 85 95C85 92.7909 86.7909 91 89 91C91.2091 91 93 92.7909 93 95Z" fill="#161616"/>
<circle opacity="0.6" cx="102" cy="95" r="4" fill="#161616"/>
<path opacity="0.6" d="M119 95C119 97.2091 117.209 99 115 99C112.791 99 111 97.2091 111 95C111 92.7909 112.791 91 115 91C117.209 91 119 92.7909 119 95Z" fill="#161616"/>
<path d="M0 0H191V6H0V0Z" fill="#D7D7D7"/>
<path d="M16 18C16 15.7909 17.7909 14 20 14H171C173.209 14 175 15.7909 175 18V78C175 80.2091 173.209 82 171 82H20C17.7909 82 16 80.2091 16 78V18Z" fill="#D7D7D7"/>
<path opacity="0.6" d="M24 24C24 22.8954 24.8954 22 26 22H91C92.1046 22 93 22.8954 93 24C93 25.1046 92.1046 26 91 26H26C24.8954 26 24 25.1046 24 24Z" fill="black"/>
<path opacity="0.6" d="M24 30C24 28.8954 24.8954 28 26 28H113C114.105 28 115 28.8954 115 30C115 31.1046 114.105 32 113 32H26C24.8954 32 24 31.1046 24 30Z" fill="black"/>
<path opacity="0.6" d="M24 36C24 34.8954 24.8954 34 26 34H71C72.1046 34 73 34.8954 73 36C73 37.1046 72.1046 38 71 38H26C24.8954 38 24 37.1046 24 36Z" fill="black"/>
</g>
<defs>
<clipPath id="clip0_9136_9584">
<path d="M0 0H191V100H0V0Z" fill="white"/>
</clipPath>
</defs>
</svg>
